
        <svg xmlns="http://www.w3.org/2000/svg" xmlns:xlink="http://www.w3.org/1999/xlink" version="1.1" width="3131.4173577261504" height="952.7758435145915" viewBox="0 0 3131.4173577261504 952.7758435145915">
			
			<g transform="scale(6.570867886307528) translate(10, 10)">
				<defs id="SvgjsDefs1060"/><g id="SvgjsG1061" featureKey="symbolContainer" transform="matrix(1.2913222733388137,0,0,1.2913222733388137,0,0)" fill="#000"><path xmlns="http://www.w3.org/2000/svg" d="M74 .7h22.2v32.8h.6V0H74v.7zM.7 33.5V.7h22.1V0H0v33.5h.7zm22.1 62.7H.7V63.3H0v33.5h22.8v-.6zm73.4-32.9v32.9H74v.6h22.8V63.3h-.6z"/></g><g id="SvgjsG1062" featureKey="monogramFeature-0" transform="matrix(1.9757044012613465,0,0,1.9757044012613465,25.12454911697158,-16.711655450667394)" fill="#000"><path d="M6.24 60.42 c-1.2 0 -2.52 -0.66 -2.76 -1.92 c1.92 0 2.22 -0.24 2.58 -2.58 l4.86 -31.2 c0.42 -2.34 0.18 -2.58 -1.74 -2.58 c0.66 -1.26 2.16 -1.92 3.36 -1.92 c0.72 0 1.38 0.12 1.86 0.36 c0.6 -0.24 1.26 -0.36 1.98 -0.36 c1.2 0 2.52 0.66 2.76 1.92 c-1.92 0 -2.22 0.24 -2.58 2.58 l-2.58 17.04 l13.44 -11.82 c3.36 -2.94 2.58 -5.1 -1.26 -5.28 c-0.48 -2.4 2.1 -4.56 3.96 -4.56 c2.16 0 3.6 1.38 3.6 3.6 c0 2.88 -2.64 5.88 -4.5 7.62 l-9.84 8.58 c9.72 0 12.06 1.86 12.06 11.1 c0 5.4 -0.36 7.44 2.76 7.44 c-1.2 1.44 -2.58 1.92 -4.14 1.92 c-2.76 0 -4.32 -2.58 -4.32 -5.88 c0 -6.06 0.3 -12.96 -8.16 -12.96 l-4.2 3.72 l-1.68 10.68 c-0.42 2.34 -0.18 2.58 1.74 2.58 c-0.66 1.26 -2.16 1.92 -3.36 1.92 c-0.72 0 -1.38 -0.12 -1.86 -0.36 c-0.6 0.24 -1.26 0.36 -1.98 0.36 z"/></g><g id="SvgjsG1063" featureKey="nameFeature-0" transform="matrix(2.8777476658901606,0,0,2.8777476658901606,152.37002382545893,-30.300191840007933)" fill="#000"><path d="M13.2 38.64 c0.32 0.04 0.08 1.36 -0.24 1.36 l-10.96 0 c-0.32 0 -0.56 -1.32 -0.24 -1.36 c2.04 -0.28 3.32 -1.08 3.32 -3.6 l0 -18.08 c0 -2.52 -1.28 -3.32 -3.32 -3.6 c-0.32 -0.04 -0.08 -1.36 0.24 -1.36 l10.96 0 c0.32 0 0.56 1.32 0.24 1.36 c-1.72 0.24 -3.32 0.8 -3.32 3.6 l0 18.08 c0 2.8 1.6 3.36 3.32 3.6 z M30.2 39 c0.32 0 0.24 1.08 0 1.16 c-2.52 0.84 -6.08 0.56 -8.52 -2.08 l-11.32 -12.24 l9.04 -9.28 c1.92 -1.96 1.8 -2.84 -0.32 -3.2 c-0.48 -0.08 -0.28 -1.36 0.04 -1.36 l9.2 0 c0.32 0 0.56 1.32 0.16 1.36 c-1.76 0.24 -3.84 1.04 -6.36 3.64 l-7.08 7.28 l10.32 11.08 c2.6 2.76 4 3.64 4.84 3.64 z M55.755 24.759999999999998 c3.72 0 7.32 2.68 7.32 7.16 c0 4.96 -4.52 8.16 -11.2 8.16 c-1.92 0 -4.16 -0.24 -7.12 -0.24 c-2.52 0 -4.44 0.04 -6.28 0.24 c-0.36 0.04 -0.56 -1.36 -0.24 -1.44 c2.32 -0.6 4.12 -0.96 4.12 -3.92 l0 -17.76 c0 -2.56 -1.64 -3.24 -3.36 -3.68 c-0.32 -0.08 -0.12 -1.4 0.2 -1.36 c1.64 0.2 3.56 0.24 4.84 0.24 c3.2 0 5.56 -0.24 7.32 -0.24 c5.16 0 9.4 2.16 9.44 6.56 c0.04 3.24 -2.24 5.48 -5.04 6.04 l0 0.24 z M49.995000000000005 14 c-2.12 0 -2.84 0.72 -2.84 2.96 l0 7.12 l4.12 0 c2.88 0 4.56 -1.44 4.56 -4.52 c0 -3.8 -2.56 -5.56 -5.84 -5.56 z M51.755 38 c3.52 0 6.16 -1.04 6.16 -5.2 c0 -4.4 -2.92 -6.72 -6.64 -6.72 l-4.12 0 l0 8.64 c0 2.2 1.12 3.28 4.6 3.28 z M101.99000000000001 38.64 c0.32 0.04 0.08 1.36 -0.24 1.36 l-10.96 0 c-0.32 0 -0.56 -1.32 -0.24 -1.36 c2.04 -0.28 3.32 -1.08 3.32 -3.6 l0 -6.88 c-0.2 -0.68 -1.04 -0.68 -1.8 -0.68 l-10.24 0 c-0.76 0 -1.6 0 -1.8 0.68 l0 6.88 c0 2.8 1.6 3.36 3.32 3.6 c0.32 0.04 0.08 1.36 -0.24 1.36 l-10.96 0 c-0.32 0 -0.56 -1.32 -0.24 -1.36 c2.04 -0.28 3.32 -1.08 3.32 -3.6 l0 -18.08 c0 -2.52 -1.28 -3.32 -3.32 -3.6 c-0.32 -0.04 -0.08 -1.36 0.24 -1.36 l10.96 0 c0.32 0 0.56 1.32 0.24 1.36 c-1.72 0.24 -3.32 0.8 -3.32 3.6 l0 7.32 c0.2 0.68 1.04 0.68 1.8 0.68 l10.24 0 c0.76 0 1.6 0 1.8 -0.68 l0 -7.32 c0 -2.52 -1.28 -3.32 -3.32 -3.6 c-0.32 -0.04 -0.08 -1.36 0.24 -1.36 l10.96 0 c0.32 0 0.56 1.32 0.24 1.36 c-1.72 0.24 -3.32 0.8 -3.32 3.6 l0 18.08 c0 2.8 1.6 3.36 3.32 3.6 z"/></g><g id="SvgjsG1064" featureKey="sloganFeature-0" transform="matrix(1.0759789557073398,0,0,1.0759789557073398,144.13939767863596,99.88844022935308)" fill="#000"><path d="M12.7 10.24 c0 3.56 -3.34 5.06 -7.76 4.4 l0 2.88 c0 1.4 0.96 1.64 2.24 1.8 c0.14 0.02 0.04 0.68 -0.12 0.68 l-6.06 0 c-0.16 0 -0.28 -0.66 -0.12 -0.68 c1.02 -0.14 1.66 -0.54 1.66 -1.8 l0 -8.92 c0 -1.32 -0.7 -1.7 -1.66 -1.96 c-0.16 -0.04 -0.06 -0.7 0.12 -0.68 c0.78 0.1 1.66 0.12 2.3 0.12 c1.48 0 2.72 -0.12 3.74 -0.12 c3.1 0 5.66 1.14 5.66 4.28 z M6.54 7 c-1.26 0 -1.6 0.44 -1.6 1.6 l0 5.06 c3.4 0.48 5.18 -0.34 5.18 -2.96 c0 -2.38 -1.52 -3.7 -3.58 -3.7 z M18.82 20.32 c-1.64 0 -4.14 -0.72 -3.9 -1.6 l0.2 -0.74 c0.56 -2.1 1.22 0.98 4.52 0.98 c1.68 0 2.5 -0.82 2.5 -1.98 c0 -0.94 -0.6 -1.34 -2.02 -2.22 l-1.94 -1.22 c-2.16 -1.36 -3.04 -2.2 -3.04 -3.7 c0 -2.46 2.4 -4.16 4.88 -4.16 c1.52 0 3.46 0.66 3.24 1.34 l-0.24 0.76 c-0.62 1.94 -1.12 -0.74 -3.86 -0.74 c-1.42 0 -2.16 0.72 -2.16 1.78 c0 0.9 0.54 1.4 1.88 2.22 l2.1 1.3 c2.12 1.32 2.98 2.22 2.98 3.66 c0 2.5 -2.46 4.32 -5.14 4.32 z M39.34 6 c0.24 0 0.3 0.64 0.06 0.68 c-0.78 0.12 -1.46 0.68 -2.38 2.12 l-3.2 5 l0 3.72 c0 1.4 0.8 1.64 2.04 1.8 c0.14 0.02 0.04 0.68 -0.12 0.68 l-6.26 0 c-0.16 0 -0.26 -0.66 -0.12 -0.68 c1.32 -0.18 2.06 -0.44 2.06 -1.8 l0 -3.64 l-3.36 -5.06 c-0.92 -1.38 -1.48 -2 -2.34 -2.14 c-0.26 -0.04 -0.2 -0.68 0.06 -0.68 l5.28 0 c0.26 0 0.3 0.64 0.06 0.68 c-0.88 0.14 -1.22 0.82 -0.36 2.12 l2.54 3.78 l2.44 -3.78 c0.84 -1.3 0.34 -1.96 -0.72 -2.12 c-0.28 -0.04 -0.2 -0.68 0.04 -0.68 l4.28 0 z M49.160000000000004 20.32 c-3.36 0 -7.9 -1.96 -7.9 -7.06 c0 -3.46 2.12 -7.58 7.72 -7.58 c2.32 0 4.32 0.72 4.08 1.42 l-0.26 0.78 c-0.72 2.14 -1.5 -0.6 -5.06 -0.6 c-2.86 0 -4.26 1.86 -4.26 4.74 c0 4.5 3.42 6.38 6.16 6.38 c0.36 0 2.18 -0.28 3.22 -0.94 c0.16 -0.1 0.58 0.36 0.46 0.54 c-0.86 1.26 -3.54 2.32 -4.16 2.32 z M70.26 19.32 c0.16 0.02 0.04 0.68 -0.12 0.68 l-5.48 0 c-0.16 0 -0.28 -0.66 -0.12 -0.68 c1.02 -0.14 1.66 -0.54 1.66 -1.8 l0 -3.44 c-0.1 -0.34 -0.52 -0.34 -0.9 -0.34 l-5.12 0 c-0.38 0 -0.8 0 -0.9 0.34 l0 3.44 c0 1.4 0.8 1.68 1.66 1.8 c0.16 0.02 0.04 0.68 -0.12 0.68 l-5.48 0 c-0.16 0 -0.28 -0.66 -0.12 -0.68 c1.02 -0.14 1.66 -0.54 1.66 -1.8 l0 -9.04 c0 -1.26 -0.64 -1.66 -1.66 -1.8 c-0.16 -0.02 -0.04 -0.68 0.12 -0.68 l5.48 0 c0.16 0 0.28 0.66 0.12 0.68 c-0.86 0.12 -1.66 0.4 -1.66 1.8 l0 3.66 c0.1 0.34 0.52 0.34 0.9 0.34 l5.12 0 c0.38 0 0.8 0 0.9 -0.34 l0 -3.66 c0 -1.26 -0.64 -1.66 -1.66 -1.8 c-0.16 -0.02 -0.04 -0.68 0.12 -0.68 l5.48 0 c0.16 0 0.28 0.66 0.12 0.68 c-0.86 0.12 -1.66 0.4 -1.66 1.8 l0 9.04 c0 1.4 0.8 1.68 1.66 1.8 z M79.46000000000001 20.32 c-4.16 0 -7.22 -3.08 -7.22 -7.24 c0 -4.04 2.88 -7.4 7.26 -7.4 c4.18 0 7.22 3.06 7.22 7.22 c0 4.06 -2.86 7.42 -7.26 7.42 z M80.24 18.96 c1.76 0 4.1 -1.16 4.1 -4.94 c0 -4.04 -2.74 -6.98 -5.62 -6.98 c-1.76 0 -4.08 1.16 -4.08 4.92 c0 4.08 2.74 7 5.6 7 z M88.52 20.04 c-0.2 0.02 -0.28 -0.68 -0.12 -0.72 c1.16 -0.3 2.06 -0.48 2.06 -1.96 l0 -8.88 c0 -1.4 -0.82 -1.68 -1.68 -1.8 c-0.16 -0.02 -0.04 -0.68 0.1 -0.68 l5.52 0 c0.14 0 0.24 0.66 0.1 0.68 c-0.84 0.1 -1.64 0.4 -1.64 1.8 l0 8.88 c0 1.14 0.48 1.56 2.14 1.56 c3.02 0 4.22 -1.38 4.7 -2.14 c0.14 -0.22 0.68 -0.12 0.68 0.22 c0 1.02 -0.86 3.04 -2.12 3.04 c-1.12 -0.06 -2.22 -0.12 -3.9 -0.12 c-1.84 0 -4.02 -0.06 -5.84 0.12 z M109.29999999999998 20.32 c-4.16 0 -7.22 -3.08 -7.22 -7.24 c0 -4.04 2.88 -7.4 7.26 -7.4 c4.18 0 7.22 3.06 7.22 7.22 c0 4.06 -2.86 7.42 -7.26 7.42 z M110.07999999999998 18.96 c1.76 0 4.1 -1.16 4.1 -4.94 c0 -4.04 -2.74 -6.98 -5.62 -6.98 c-1.76 0 -4.08 1.16 -4.08 4.92 c0 4.08 2.74 7 5.6 7 z M127.38 20.32 c-4.78 0 -8.62 -2.36 -8.62 -7.06 c0 -3.82 2.62 -7.58 8.18 -7.58 c2.44 0 4.34 0.72 4.1 1.4 l-0.3 0.84 c-0.7 1.98 -1.5 -0.62 -5.24 -0.62 c-3.1 0 -4.52 1.78 -4.52 4.8 c0 4.5 3.06 6.94 5.82 6.94 c1.44 0 1.98 -0.7 1.98 -1.84 l0 -0.36 c0 -1.52 -0.68 -2.02 -2.28 -2.26 c-0.26 -0.04 -0.02 -0.76 0.42 -0.76 l5.14 0 c0.56 0 0.36 0.7 0.14 0.76 c-0.74 0.2 -1.24 0.62 -1.24 1.9 l0 0.7 c0 0.48 0.04 0.9 0.42 1.52 c-1.2 0.66 -3.52 1.62 -4 1.62 z M134.42 20 c-0.16 0 -0.28 -0.66 -0.12 -0.68 c1.02 -0.14 1.66 -0.54 1.66 -1.8 l0 -9.04 c0 -1.26 -0.64 -1.66 -1.66 -1.8 c-0.16 -0.02 -0.04 -0.68 0.12 -0.68 l5.48 0 c0.16 0 0.28 0.66 0.12 0.68 c-0.86 0.12 -1.66 0.4 -1.66 1.8 l0 9.04 c0 1.4 0.8 1.68 1.66 1.8 c0.16 0.02 0.04 0.68 -0.12 0.68 l-5.48 0 z M149.89999999999998 20.32 c-3.36 0 -7.9 -1.96 -7.9 -7.06 c0 -3.46 2.12 -7.58 7.72 -7.58 c2.32 0 4.32 0.72 4.08 1.42 l-0.26 0.78 c-0.72 2.14 -1.5 -0.6 -5.06 -0.6 c-2.86 0 -4.26 1.86 -4.26 4.74 c0 4.5 3.42 6.38 6.16 6.38 c0.36 0 2.18 -0.28 3.22 -0.94 c0.16 -0.1 0.58 0.36 0.46 0.54 c-0.86 1.26 -3.54 2.32 -4.16 2.32 z M170.51999999999998 19.32 c0.28 0.04 0.2 0.68 -0.04 0.68 l-5.28 0 c-0.26 0 -0.28 -0.64 -0.06 -0.68 c0.74 -0.14 1.54 -0.4 0.8 -2.12 l-0.22 -0.5 c-0.2 -0.48 -0.54 -0.52 -1.14 -0.52 l-4.08 0 c-0.6 0 -0.94 0.04 -1.14 0.52 l-0.2 0.5 c-0.7 1.72 0.06 1.98 1.02 2.12 c0.26 0.04 0.2 0.68 -0.06 0.68 l-4.32 0 c-0.24 0 -0.3 -0.64 -0.06 -0.68 c0.82 -0.14 1.3 -0.42 2.04 -2.12 l3.38 -7.76 c0.78 -1.76 1.02 -2.58 1.02 -3.34 c0 -0.12 1.4 -0.44 1.46 -0.3 l4.88 11.38 c0.72 1.7 1.2 2.02 2 2.14 z M164.44 15.059999999999999 c0.28 0 0.58 -0.04 0.46 -0.32 l-2.34 -5.6 l-2.36 5.6 c-0.12 0.28 0.18 0.32 0.46 0.32 l3.78 0 z M171.89999999999998 20.04 c-0.2 0.02 -0.28 -0.68 -0.12 -0.72 c1.16 -0.3 2.06 -0.48 2.06 -1.96 l0 -8.88 c0 -1.4 -0.82 -1.68 -1.68 -1.8 c-0.16 -0.02 -0.04 -0.68 0.1 -0.68 l5.52 0 c0.14 0 0.24 0.66 0.1 0.68 c-0.84 0.1 -1.64 0.4 -1.64 1.8 l0 8.88 c0 1.14 0.48 1.56 2.14 1.56 c3.02 0 4.22 -1.38 4.7 -2.14 c0.14 -0.22 0.68 -0.12 0.68 0.22 c0 1.02 -0.86 3.04 -2.12 3.04 c-1.12 -0.06 -2.22 -0.12 -3.9 -0.12 c-1.84 0 -4.02 -0.06 -5.84 0.12 z M193.38 20.32 c-1.64 0 -4.14 -0.72 -3.9 -1.6 l0.2 -0.74 c0.56 -2.1 1.22 0.98 4.52 0.98 c1.68 0 2.5 -0.82 2.5 -1.98 c0 -0.94 -0.6 -1.34 -2.02 -2.22 l-1.94 -1.22 c-2.16 -1.36 -3.04 -2.2 -3.04 -3.7 c0 -2.46 2.4 -4.16 4.88 -4.16 c1.52 0 3.46 0.66 3.24 1.34 l-0.24 0.76 c-0.62 1.94 -1.12 -0.74 -3.86 -0.74 c-1.42 0 -2.16 0.72 -2.16 1.78 c0 0.9 0.54 1.4 1.88 2.22 l2.1 1.3 c2.12 1.32 2.98 2.22 2.98 3.66 c0 2.5 -2.46 4.32 -5.14 4.32 z M200.21999999999997 20.04 c-0.2 0.02 -0.28 -0.68 -0.12 -0.72 c1.16 -0.3 2.06 -0.48 2.06 -1.96 l0 -8.88 c0 -1.28 -0.82 -1.62 -1.68 -1.84 c-0.16 -0.04 -0.06 -0.7 0.1 -0.68 c1.46 0.16 3.98 0.12 5.2 0.12 c1.82 0 3.14 -0.08 4.78 -0.12 c0.48 0 0.48 0.32 0.38 0.78 l-0.48 1.9 c-0.06 0.28 -0.56 0.28 -0.64 0 c-0.3 -0.98 -0.9 -1.54 -3.4 -1.54 c-1.4 0 -1.86 0.36 -1.86 1.4 l0 3.26 c0 0.52 0.26 0.62 0.66 0.62 l0.44 0 c1.62 0 3.02 -0.16 3.84 -0.9 c0.2 -0.18 0.64 -0.14 0.46 0.26 l-1.14 2.52 c-0.16 0.36 -0.46 0.32 -0.68 0.02 c-0.46 -0.64 -1.48 -0.9 -2.64 -0.9 l-0.28 0 c-0.4 0 -0.66 0.1 -0.66 0.62 l0 3.36 c0 1.14 0.48 1.56 2.14 1.56 c3.02 0 4.22 -1.38 4.7 -2.14 c0.14 -0.22 0.68 -0.12 0.68 0.22 c0 1.02 -0.86 3.04 -2.12 3.04 c-1.12 -0.06 -2.22 -0.12 -3.9 -0.12 c-1.84 0 -4.02 -0.06 -5.84 0.12 z M228.38 19.5 c0.16 0 0.12 0.54 0 0.58 c-1.26 0.42 -3 0.36 -4.2 -1.18 l-3.08 -3.96 c-0.86 -1.12 -1.88 -1.28 -3.28 -1.3 l0 3.88 c0 1.4 0.96 1.64 2.24 1.8 c0.14 0.02 0.04 0.68 -0.12 0.68 l-6.06 0 c-0.16 0 -0.28 -0.66 -0.12 -0.68 c1.02 -0.14 1.66 -0.54 1.66 -1.8 l0 -8.92 c0 -1.32 -0.7 -1.7 -1.66 -1.96 c-0.16 -0.04 -0.06 -0.7 0.12 -0.68 c0.78 0.1 1.66 0.12 2.3 0.12 c1.48 0 2.86 -0.12 3.82 -0.12 c3.02 0 5.04 1.24 5.04 3.7 c0 2.32 -1.88 3.46 -3.56 3.56 l0 0.1 c0.8 0 1.38 0.34 2.26 1.44 l2.98 3.74 c0.62 0.78 1.22 1 1.66 1 z M218.4 12.719999999999999 c2.98 0 4.12 -0.52 4.12 -2.52 c0 -2.14 -1.36 -3.2 -3.14 -3.2 c-1.18 0 -1.56 0.48 -1.56 1.6 l0 4.12 l0.58 0 z M244.28 6 c0.22 0 0.3 0.64 0.04 0.68 c-0.8 0.12 -1.32 0.44 -2.04 2.12 l-3.38 7.86 c-0.7 1.62 -1.02 2.54 -1.02 3.34 c0 0.12 -1.38 0.44 -1.44 0.3 l-4.86 -11.48 c-0.72 -1.72 -1.26 -2.02 -2.04 -2.14 c-0.26 -0.04 -0.2 -0.68 0.06 -0.68 l5.26 0 c0.26 0 0.3 0.64 0.06 0.68 c-0.74 0.12 -1.48 0.44 -0.78 2.12 l3.38 8.12 l3.38 -8.12 c0.72 -1.72 -0.08 -1.98 -1 -2.12 c-0.26 -0.04 -0.2 -0.68 0.06 -0.68 l4.32 0 z M246.08 20 c-0.16 0 -0.28 -0.66 -0.12 -0.68 c1.02 -0.14 1.66 -0.54 1.66 -1.8 l0 -9.04 c0 -1.26 -0.64 -1.66 -1.66 -1.8 c-0.16 -0.02 -0.04 -0.68 0.12 -0.68 l5.48 0 c0.16 0 0.28 0.66 0.12 0.68 c-0.86 0.12 -1.66 0.4 -1.66 1.8 l0 9.04 c0 1.4 0.8 1.68 1.66 1.8 c0.16 0.02 0.04 0.68 -0.12 0.68 l-5.48 0 z M261.56 20.32 c-3.36 0 -7.9 -1.96 -7.9 -7.06 c0 -3.46 2.12 -7.58 7.72 -7.58 c2.32 0 4.32 0.72 4.08 1.42 l-0.26 0.78 c-0.72 2.14 -1.5 -0.6 -5.06 -0.6 c-2.86 0 -4.26 1.86 -4.26 4.74 c0 4.5 3.42 6.38 6.16 6.38 c0.36 0 2.18 -0.28 3.22 -0.94 c0.16 -0.1 0.58 0.36 0.46 0.54 c-0.86 1.26 -3.54 2.32 -4.16 2.32 z M267.44 20.04 c-0.2 0.02 -0.28 -0.68 -0.12 -0.72 c1.16 -0.3 2.06 -0.48 2.06 -1.96 l0 -8.88 c0 -1.28 -0.82 -1.62 -1.68 -1.84 c-0.16 -0.04 -0.06 -0.7 0.1 -0.68 c1.46 0.16 3.98 0.12 5.2 0.12 c1.82 0 3.14 -0.08 4.78 -0.12 c0.48 0 0.48 0.32 0.38 0.78 l-0.48 1.9 c-0.06 0.28 -0.56 0.28 -0.64 0 c-0.3 -0.98 -0.9 -1.54 -3.4 -1.54 c-1.4 0 -1.86 0.36 -1.86 1.4 l0 3.26 c0 0.52 0.26 0.62 0.66 0.62 l0.44 0 c1.62 0 3.02 -0.16 3.84 -0.9 c0.2 -0.18 0.64 -0.14 0.46 0.26 l-1.14 2.52 c-0.16 0.36 -0.46 0.32 -0.68 0.02 c-0.46 -0.64 -1.48 -0.9 -2.64 -0.9 l-0.28 0 c-0.4 0 -0.66 0.1 -0.66 0.62 l0 3.36 c0 1.14 0.48 1.56 2.14 1.56 c3.02 0 4.22 -1.38 4.7 -2.14 c0.14 -0.22 0.68 -0.12 0.68 0.22 c0 1.02 -0.86 3.04 -2.12 3.04 c-1.12 -0.06 -2.22 -0.12 -3.9 -0.12 c-1.84 0 -4.02 -0.06 -5.84 0.12 z M285.22 20.32 c-1.64 0 -4.14 -0.72 -3.9 -1.6 l0.2 -0.74 c0.56 -2.1 1.22 0.98 4.52 0.98 c1.68 0 2.5 -0.82 2.5 -1.98 c0 -0.94 -0.6 -1.34 -2.02 -2.22 l-1.94 -1.22 c-2.16 -1.36 -3.04 -2.2 -3.04 -3.7 c0 -2.46 2.4 -4.16 4.88 -4.16 c1.52 0 3.46 0.66 3.24 1.34 l-0.24 0.76 c-0.62 1.94 -1.12 -0.74 -3.86 -0.74 c-1.42 0 -2.16 0.72 -2.16 1.78 c0 0.9 0.54 1.4 1.88 2.22 l2.1 1.3 c2.12 1.32 2.98 2.22 2.98 3.66 c0 2.5 -2.46 4.32 -5.14 4.32 z"/></g>
			</g>
		</svg>
	