<svg width="27" height="16" viewBox="0 0 27 16" fill="currentColor" xmlns="http://www.w3.org/2000/svg">
  <path id="top" fill-rule="evenodd" clip-rule="evenodd" d="M1.5 0H25.5C25.8978 0 26.2794 0.120408 26.5607 0.334735C26.842 0.549063 27 0.839753 27 1.14286C27 1.44596 26.842 1.73665 26.5607 1.95098C26.2794 2.16531 25.8978 2.28571 25.5 2.28571H1.5C1.10218 2.28571 0.720644 2.16531 0.43934 1.95098C0.158035 1.73665 0 1.44596 0 1.14286C0 0.839753 0.158035 0.549063 0.43934 0.334735C0.720644 0.120408 1.10218 0 1.5 0Z"/>
  <path id="middle" fill-rule="evenodd" clip-rule="evenodd" d="M1.5 6.85714H25.5C25.8978 6.85714 26.2794 6.97755 26.5607 7.19188C26.842 7.40621 27 7.6969 27 8C27 8.3031 26.842 8.5938 26.5607 8.80812C26.2794 9.02245 25.8978 9.14286 25.5 9.14286H1.5C1.10218 9.14286 0.720644 9.02245 0.43934 8.80812C0.158035 8.5938 0 8.3031 0 8C0 7.6969 0.158035 7.40621 0.43934 7.19188C0.720644 6.97755 1.10218 6.85714 1.5 6.85714Z"/>
  <path id="bottom" fill-rule="evenodd" clip-rule="evenodd" d="M1.5 13.7143H25.5C25.8978 13.7143 26.2794 13.8347 26.5607 14.049C26.842 14.2633 27 14.554 27 14.8571C27 15.1602 26.842 15.4509 26.5607 15.6653C26.2794 15.8796 25.8978 16 25.5 16H1.5C1.10218 16 0.720644 15.8796 0.43934 15.6653C0.158035 15.4509 0 15.1602 0 14.8571C0 14.554 0.158035 14.2633 0.43934 14.049C0.720644 13.8347 1.10218 13.7143 1.5 13.7143Z"/>
</svg>